<?xml version="1.0" standalone="no"?>
<!DOCTYPE svg PUBLIC "-//W3C//DTD SVG 20010904//EN"
 "http://www.w3.org/TR/2001/REC-SVG-20010904/DTD/svg10.dtd">
<svg version="1.0" xmlns="http://www.w3.org/2000/svg"
 width="51.000000pt" height="50.000000pt" viewBox="0 0 69.000000 68.000000"
 preserveAspectRatio="xMidYMid meet">

<g transform="translate(0.000000,68.000000) scale(0.100000,-0.100000)"
fill="#000000" stroke="none">
<path d="M260 340 l0 -340 85 0 85 0 0 340 0 340 -85 0 -85 0 0 -340z m150 0
l0 -310 -65 0 -65 0 0 310 0 310 65 0 65 0 0 -310z"/>
<path d="M515 458 c-3 -8 -4 -112 -3 -233 l3 -220 85 0 85 0 0 230 0 230 -83
3 c-61 2 -84 -1 -87 -10z m145 -223 l0 -205 -60 0 -60 0 0 205 0 205 60 0 60
0 0 -205z"/>
<path d="M2 188 l3 -183 85 0 85 0 3 183 2 182 -90 0 -90 0 2 -182z m148 2 l0
-160 -60 0 -60 0 0 160 0 160 60 0 60 0 0 -160z"/>
</g>
</svg>
