<svg xmlns="http://www.w3.org/2000/svg" width="70.002" height="70.004" viewBox="0 0 70.002 70.004">
  <path id="pen" d="M600.021,1405.924l-8.95-8.95a3.347,3.347,0,0,0-4.728,0l-16.85,16.85a1.08,1.08,0,0,0,1.528,1.528l16.85-16.85a1.182,1.182,0,0,1,1.672,0l8.95,8.949a1.183,1.183,0,0,1,0,1.672l-2.2,2.2-5.755-5.754a1.08,1.08,0,0,0-1.528,1.528l5.755,5.755-2.509,2.51-2.529-2.529a1.08,1.08,0,0,0-1.528,1.528l2.529,2.529-2.509,2.509-2.529-2.529a1.08,1.08,0,0,0-1.528,1.528l2.529,2.529-2.509,2.509-5.755-5.755a1.08,1.08,0,0,0-1.528,1.528l5.755,5.755-2.509,2.51-2.529-2.529a1.08,1.08,0,0,0-1.528,1.528L578.62,1429l-2.123,2.123L565.875,1420.5l1.976-1.976a1.081,1.081,0,0,0-1.528-1.528l-1.976,1.976-19.93-19.929a7.339,7.339,0,0,0-10.379,10.379l19.93,19.93-21.993,21.994a3.347,3.347,0,0,0,0,4.728l8.95,8.95a3.343,3.343,0,0,0,4.728,0l21.993-21.993,1.566,1.567a1.08,1.08,0,0,0,1.528-1.528l-2.162-2.162a1.053,1.053,0,0,0-.336-.337l-23.41-23.41,2.9-2.9,1.791,1.791a1.081,1.081,0,1,0,1.528-1.528l-1.791-1.791,2.9-2.9,11.427,11.428h0l12.043,12.043a1.1,1.1,0,0,0,.1.114,1.068,1.068,0,0,0,.114.1l16.034,16.034-2.9,2.9L572.8,1436.273c-.01-.01-.018-.021-.029-.032l-6.451-6.451-.033-.03-11.4-11.395a1.08,1.08,0,0,0-1.528,1.528l34.084,34.084-2.9,2.9-10.268-10.268a1.08,1.08,0,0,0-1.528,1.528l11.031,11.032a1.092,1.092,0,0,0,.373.243l13.054,5.069a1.753,1.753,0,0,0,2.268-2.27l-5.074-13.048a1.091,1.091,0,0,0-.243-.373l-16.139-16.139,22-22A3.347,3.347,0,0,0,600.021,1405.924Zm-33.9,35.576-2.12,2.119-2.529-2.529a1.08,1.08,0,0,0-1.528,1.528l2.529,2.529-2.509,2.509-5.755-5.755a1.08,1.08,0,0,0-1.528,1.528l5.755,5.755-2.509,2.509-2.529-2.529a1.08,1.08,0,0,0-1.528,1.528l2.529,2.529-2.509,2.509-2.529-2.529a1.08,1.08,0,0,0-1.528,1.528l2.529,2.529-2.509,2.509-5.755-5.755a1.08,1.08,0,0,0-1.528,1.528l5.755,5.755-2.2,2.2a1.182,1.182,0,0,1-1.672,0l-8.95-8.95a1.184,1.184,0,0,1,0-1.672l21.993-21.994Zm-30.552-33.608a5.178,5.178,0,0,1,7.323-7.323l3.415,3.415-7.323,7.323Zm11.4,4.075h0l-3.661,3.661-2.795-2.795,7.323-7.323,2.795,2.795Zm50.165,50.162L586.484,1458l6.508-6.508Z" transform="translate(-530.997 -1395.997)" fill="#252c3a"/>
</svg>
