<svg xmlns="http://www.w3.org/2000/svg" width="71" height="70.999" viewBox="0 0 71 70.999">
  <path id="Shape_1" data-name="Shape 1" d="M962.358,1449.842c-7,4.082-13.634,6.158-19.149,6.158-4.356,0-8.015-1.293-10.612-3.914-5.888-5.937-5.017-17.383,2.224-30.023a55.631,55.631,0,0,1-3.568-7.4l-.106,0a6.21,6.21,0,0,1-2.426-11.9c-.006-4.46,1.318-8.152,3.876-10.732,5.885-5.94,17.231-5.062,29.761,2.244,7.339-4.278,14.43-6.424,20.221-6.133a6.136,6.136,0,0,1,11.5,3.051,6.213,6.213,0,0,1-.545,2.55c2.136,3.136,2.908,7.38,2.235,12.37a45.222,45.222,0,0,1-5.872,15.941c7.244,12.641,8.115,24.086,2.228,30.025-2.6,2.62-6.258,3.913-10.613,3.913C975.992,1456,969.36,1453.924,962.358,1449.842Zm15.493-12.151a78,78,0,0,1-12.124,10.048c10.3,5.557,19.526,6.342,23.949,1.88s3.644-13.767-1.867-24.158A78.266,78.266,0,0,1,977.851,1437.691Zm-42.809,11.928c4.422,4.462,13.648,3.677,23.947-1.88a80.833,80.833,0,0,1-22.083-22.278C931.4,1435.851,930.619,1445.158,935.042,1449.618Zm14.27-40.718a73.835,73.835,0,0,0-10.459,13.162,76.739,76.739,0,0,0,23.505,23.712,76.7,76.7,0,0,0,23.5-23.712,76.7,76.7,0,0,0-23.5-23.712A73.462,73.462,0,0,0,949.312,1408.9Zm-14.27-14.395a11.165,11.165,0,0,0-2.862,7.851,6.216,6.216,0,0,1,2.385,11.263,50.175,50.175,0,0,0,2.341,5.045,80.819,80.819,0,0,1,22.083-22.279c-5.833-3.147-11.321-4.764-15.787-4.764C939.782,1391.622,936.96,1392.571,935.042,1394.506Zm30.682,1.878a80.777,80.777,0,0,1,22.085,22.279,39.912,39.912,0,0,0,4.529-13.014c.5-3.694.085-6.82-1.2-9.165a6.069,6.069,0,0,1-3.214.918,6.177,6.177,0,0,1-6.132-5.79l-.313,0C976.951,1391.611,971.495,1393.263,965.724,1396.384Zm-37.266,12.084a2.689,2.689,0,1,0,2.689-2.713A2.7,2.7,0,0,0,928.458,1408.469Zm56.781-17.267a2.689,2.689,0,1,0,2.689-2.713A2.7,2.7,0,0,0,985.239,1391.2Zm-32.02,30.861a9.14,9.14,0,1,1,9.14,9.22A9.191,9.191,0,0,1,953.219,1422.062Zm3.459,0a5.681,5.681,0,1,0,5.682-5.731A5.713,5.713,0,0,0,956.678,1422.062Z" transform="translate(-925 -1385)" fill="#252c3a"/>
</svg>
