<svg xmlns="http://www.w3.org/2000/svg" width="82.998" height="83" viewBox="0 0 82.998 83">
  <path id="Chemistry" d="M1364.6,1466a8.643,8.643,0,0,1-6.852-3.38,8.419,8.419,0,0,1-6.739,3.38h-31.488a8.525,8.525,0,0,1-7.347-12.848l16.114-27.393V1403.75a1.73,1.73,0,0,1,1.73-1.729h8.646a1.729,1.729,0,0,1,1.729,1.729v6.1a29.267,29.267,0,0,1,3.459-1.308v-23.808a1.729,1.729,0,0,1,1.729-1.729h12.1a1.729,1.729,0,0,1,1.729,1.729v23.315a29.444,29.444,0,0,1,16.021,10.185l-2.7,2.165a25.962,25.962,0,0,0-15.377-9.257,1.729,1.729,0,0,1-1.406-1.7v-22.982h-8.645v23.386a1.732,1.732,0,0,1-1.3,1.676,25.918,25.918,0,0,0-5.62,2.173v12.018l15.563,24.057v-20.08a6.917,6.917,0,0,1,6.917-6.917h26.951a4.177,4.177,0,0,1,2.954,7.126l-3.967,3.964v23.493a8.656,8.656,0,0,1-8.645,8.646Zm-32.854-39.771a1.733,1.733,0,0,1-.239.877l-16.362,27.8a5.067,5.067,0,0,0,4.375,7.635h31.488a4.945,4.945,0,0,0,4.15-7.632l-17.949-27.742a1.736,1.736,0,0,1-.276-.939v-20.75h-5.187Zm27.666,3.458v27.667a5.187,5.187,0,0,0,5.188,5.188h15.563a5.187,5.187,0,0,0,5.188-5.187v-24.208a1.726,1.726,0,0,1,.507-1.222l4.471-4.472a.716.716,0,0,0-.507-1.222h-26.951A3.459,3.459,0,0,0,1359.416,1429.687Zm13.834,29.4v-3.459h5.188v-22.479h3.458v24.208a1.73,1.73,0,0,1-1.729,1.73Zm-53.512,0a1.729,1.729,0,0,1-1.492-2.606l14.682-24.957,2.982,1.751-13.151,22.353h8.992v3.459Zm43.132-1.724v-3.46h3.46v3.46Zm-17.29,0v-3.46h3.46v3.46Zm17.29-6.92v-3.461h5.19v3.461Zm-22.47,0v-3.461h3.46v3.461Zm22.47-6.92v-3.46h3.46v3.46Zm0-6.91v-3.46h5.19v3.46Zm-13.83-3.46v-3.461h3.461v3.461Zm-3.46-6.92v-3.46h3.46v3.46Zm-25.93,0v-3.46h3.46v3.46Zm58.787-12.97a6.052,6.052,0,1,1,6.052,6.052A6.051,6.051,0,0,1,1378.437,1413.26Zm3.458,0a2.594,2.594,0,1,0,2.594-2.594A2.593,2.593,0,0,0,1381.9,1413.26Zm-38.045,6.05v-3.46h3.46v3.46Zm-29.39-1.72v-3.46h3.46v3.46Zm-3.46-14.705a6.052,6.052,0,1,1,6.052,6.052A6.052,6.052,0,0,1,1311,1402.885Zm3.458,0a2.594,2.594,0,1,0,2.594-2.594A2.594,2.594,0,0,0,1314.458,1402.886Zm58.792-2.594a5.188,5.188,0,1,1,5.188,5.188A5.187,5.187,0,0,1,1373.25,1400.292Zm3.458,0a1.729,1.729,0,1,0,1.73-1.73A1.73,1.73,0,0,0,1376.708,1400.292Zm-57.062-10.375a5.188,5.188,0,1,1,5.188,5.188A5.188,5.188,0,0,1,1319.646,1389.917Zm3.459,0a1.729,1.729,0,1,0,1.729-1.728A1.729,1.729,0,0,0,1323.1,1389.916Z" transform="translate(-1311 -1383)" fill="#252c3a"/>
</svg>
