<svg xmlns="http://www.w3.org/2000/svg" width="87" height="86" viewBox="0 0 87 86">
  <path id="Forma_1" data-name="Forma 1" d="M1337.664,1149a4.293,4.293,0,0,1-4.279-4.3,4.425,4.425,0,0,1,1.309-3.172,4.261,4.261,0,0,1-.944-2.66,4.077,4.077,0,0,1,1.713-3.4c-.313-3.628-3.194-7.8-5.782-11.5-1.225-1.754-2.381-3.411-3.268-4.986-4.937-8.776-8-19.048-8-26.807,0-16.332,13.783-29.127,31.377-29.127h0a1.429,1.429,0,0,1,1.426,1.433v22.869h5.705v-7.426a4.285,4.285,0,1,1,2.852,0v7.427h2.853a1.429,1.429,0,0,1,1.426,1.432v2.866h4.279v-4.562a4.285,4.285,0,1,1,2.853,0v5.994h0a1.43,1.43,0,0,1-1.427,1.432h-5.705v5.729h8.82a4.279,4.279,0,1,1,0,2.865h-8.821v2.866a1.43,1.43,0,0,1-1.427,1.433h-5.7v2.865h4.28a1.428,1.428,0,0,1,1.425,1.432v3.129a4.284,4.284,0,1,1-2.852,0v-1.7h-4.279a1.429,1.429,0,0,1-1.426-1.433v-4.3h-2.852v27.267h10.332c.06,0,.121,0,.18,0a4.1,4.1,0,0,1,4.1,4.1,4.433,4.433,0,0,1-.948,2.745,4.291,4.291,0,0,1,1.312,3.086c0,.015,0,.031,0,.047a4.317,4.317,0,0,1-4.279,4.352Zm-1.427-4.4c0,.016,0,.033,0,.049a1.456,1.456,0,0,0,1.427,1.484h24.246a1.432,1.432,0,0,0,1.426-1.433c0-.017,0-.033,0-.05a1.456,1.456,0,0,0-1.428-1.483h-24.246A1.431,1.431,0,0,0,1336.237,1144.6Zm.365-5.831c0,.017,0,.033,0,.05a1.457,1.457,0,0,0,1.428,1.484h23.516a1.43,1.43,0,0,0,1.426-1.433,1.313,1.313,0,0,0-1.426-1.332h-23.516l-.084-.006h-.056A1.291,1.291,0,0,0,1336.6,1138.771Zm-15.341-46.594c0,7.184,3,17.152,7.634,25.4.818,1.455,1.936,3.056,3.12,4.751,2.677,3.835,5.655,8.129,6.238,12.351h10.107v-15.869c-.379-.028-.765-.063-1.179-.113a1.43,1.43,0,0,1-1.223-1.128l-.434-2.075q-.537-.128-1.071-.29l-1.421,1.592a1.425,1.425,0,0,1-1.622.362,21.4,21.4,0,0,1-4.488-2.633,1.438,1.438,0,0,1-.5-1.591l.655-2q-.4-.382-.786-.788l-1.993.657a1.427,1.427,0,0,1-1.583-.5,21.529,21.529,0,0,1-2.623-4.509,1.439,1.439,0,0,1,.361-1.628l1.587-1.427q-.161-.531-.286-1.064l-2.219-.445a1.43,1.43,0,0,1-1.147-1.4v-4.885a1.429,1.429,0,0,1,1.147-1.4l2.219-.446q.126-.533.285-1.064l-1.586-1.427a1.436,1.436,0,0,1-.36-1.628,21.522,21.522,0,0,1,2.622-4.509,1.431,1.431,0,0,1,1.584-.5l1.992.657c.255-.27.517-.534.786-.788l-.654-2a1.436,1.436,0,0,1,.5-1.591,21.46,21.46,0,0,1,4.487-2.631,1.419,1.419,0,0,1,1.621.362l1.422,1.592q.533-.162,1.071-.29l.434-2.076a1.43,1.43,0,0,1,1.223-1.125c.414-.051.8-.085,1.178-.114v-10.008C1333.053,1066.608,1321.262,1077.891,1321.262,1092.177Zm38.508,26.69a1.426,1.426,0,1,0,1.427-1.432A1.429,1.429,0,0,0,1359.77,1118.867ZM1344.5,1112.2a15.424,15.424,0,0,0,2.484.672,1.428,1.428,0,0,1,1.143,1.117l.236,1.127v-4.926a12.894,12.894,0,0,1,0-25.616v-4.925l-.236,1.128a1.43,1.43,0,0,1-1.143,1.115,15.33,15.33,0,0,0-2.485.672,1.428,1.428,0,0,1-1.544-.392l-1.341-1.5a18.633,18.633,0,0,0-2.146,1.266l.618,1.893a1.434,1.434,0,0,1-.432,1.537,15.921,15.921,0,0,0-1.826,1.837,1.431,1.431,0,0,1-1.533.434l-1.885-.623a18.839,18.839,0,0,0-1.26,2.157l1.5,1.345a1.438,1.438,0,0,1,.391,1.552,15.86,15.86,0,0,0-.67,2.5,1.428,1.428,0,0,1-1.125,1.149l-1.994.4v2.534l1.994.4a1.43,1.43,0,0,1,1.125,1.15,15.746,15.746,0,0,0,.67,2.5,1.44,1.44,0,0,1-.391,1.551l-1.5,1.347a18.648,18.648,0,0,0,1.261,2.157l1.884-.623a1.43,1.43,0,0,1,1.533.434,15.6,15.6,0,0,0,1.826,1.832,1.44,1.44,0,0,1,.434,1.542l-.619,1.893a18.468,18.468,0,0,0,2.146,1.266l1.342-1.5a1.422,1.422,0,0,1,1.062-.477A1.447,1.447,0,0,1,1344.5,1112.2Zm-4.594-16.237a10.007,10.007,0,0,0,8.456,11.332v-19.826A9.993,9.993,0,0,0,1339.9,1095.961Zm11.309,8.582h9.984v-14.324h-9.984Zm24.246-2.865a1.426,1.426,0,1,0,1.426-1.433A1.429,1.429,0,0,0,1375.459,1101.677Zm-7.132-18.623a1.427,1.427,0,1,0,1.427-1.432A1.43,1.43,0,0,0,1368.328,1083.055Zm-11.409-7.162a1.426,1.426,0,1,0,1.426-1.433A1.429,1.429,0,0,0,1356.918,1075.892Zm-47.068,73.057v-2.87H1307v-2.86h2.85v2.86h2.849v2.87Zm2.849-2.87v-2.86h2.85v2.86Zm-2.849-2.87v-2.86h2.849v2.86Zm52.359-11.881a24.342,24.342,0,0,1,1.332-2.8l2.5,1.385a21.529,21.529,0,0,0-1.178,2.468Zm2.885-5.382c.536-.831,1.094-1.653,1.655-2.461l2.341,1.636c-.542.784-1.084,1.578-1.6,2.381Zm3.32-4.854c.562-.814,1.1-1.607,1.579-2.374l2.414,1.525c-.5.8-1.062,1.633-1.651,2.483Zm2.974-4.819q.668-1.26,1.282-2.548l2.574,1.235q-.64,1.349-1.34,2.665Zm2.452-5.153c.374-.879.727-1.767,1.058-2.652l2.669,1.007q-.519,1.389-1.1,2.767Zm4.361-16.423c.074-.873.111-1.722.111-2.521v-.263l2.852-.022,0,.285c0,.88-.041,1.809-.121,2.762Zm-.542-8.252,2.777-.652a28.071,28.071,0,0,1,.531,3.029l-2.833.338A24.752,24.752,0,0,0,1377.659,1086.446Zm-1.837-5.188,2.564-1.253a27.622,27.622,0,0,1,1.186,2.837l-2.687.959A25.252,25.252,0,0,0,1375.822,1081.258Zm-2.933-4.658,2.235-1.782a28.766,28.766,0,0,1,1.771,2.5l-2.41,1.53A26.216,26.216,0,0,0,1372.889,1076.6Zm-3.857-3.947,1.818-2.207a29.863,29.863,0,0,1,2.248,2.072l-2.033,2.009A27.077,27.077,0,0,0,1369.031,1072.653Zm19.269-1.053v-2.87h2.849v2.87Zm-23.854-2.048,1.357-2.52c.9.487,1.771,1.018,2.6,1.58l-1.592,2.379C1366.059,1070.478,1365.26,1069.995,1364.446,1069.552Zm26.7-.832v-2.86H1394v2.86Zm-5.71,0v-2.86h2.849v2.86Zm-26.092-1.335.864-2.731c.973.311,1.932.666,2.851,1.058l-1.116,2.636C1361.111,1067.993,1360.237,1067.668,1359.348,1067.386Zm-5.419-1.2.365-2.842c1,.131,2.01.308,2.988.525l-.616,2.8C1355.77,1066.462,1354.85,1066.3,1353.929,1066.182Zm34.371-.312V1063h2.849v2.87Z" transform="translate(-1307 -1063)" fill="#252c3a"/>
</svg>
