<?xml version="1.0" standalone="no"?>
<!DOCTYPE svg PUBLIC "-//W3C//DTD SVG 20010904//EN"
 "http://www.w3.org/TR/2001/REC-SVG-20010904/DTD/svg10.dtd">
<svg version="1.0" xmlns="http://www.w3.org/2000/svg"
 width="51.000000pt" height="69.000000pt" viewBox="0 0 68.000000 76.000000"
 preserveAspectRatio="xMidYMid meet">

<g transform="translate(0.000000,76.000000) scale(0.100000,-0.100000)"
fill="#000000" stroke="none">
<path d="M247 754 c-4 -4 -7 -14 -7 -23 0 -9 -20 -27 -45 -40 -83 -44 -137
-126 -151 -229 -5 -36 -12 -56 -25 -63 -28 -14 -27 -99 0 -106 11 -3 21 -15
23 -27 2 -15 12 -22 37 -26 27 -4 37 -11 44 -33 8 -24 5 -33 -14 -53 l-23 -25
42 -41 41 -42 26 24 c21 20 30 22 53 14 21 -7 28 -18 32 -44 5 -35 5 -35 62
-38 l57 -3 3 37 c2 31 8 39 31 47 24 8 33 5 53 -14 l24 -23 40 39 c46 45 47
51 20 80 -18 19 -19 26 -9 49 10 20 19 26 46 26 29 0 33 3 33 25 0 18 5 25 20
25 17 0 20 7 20 49 0 37 -5 53 -18 63 -12 8 -21 32 -25 61 -14 100 -79 197
-156 232 -26 11 -41 25 -43 39 -3 19 -10 21 -93 24 -50 1 -94 0 -98 -4z m163
-154 l0 -130 -70 0 -70 0 0 130 0 130 70 0 70 0 0 -130z m-170 -40 l0 -120
100 0 100 0 0 120 c0 66 4 120 8 120 17 0 90 -59 112 -90 28 -39 50 -111 50
-161 0 -29 5 -39 20 -44 14 -4 20 -15 20 -36 l0 -29 -310 0 -310 0 0 24 c0 14
8 31 18 38 13 9 21 31 25 67 9 79 50 154 104 196 25 19 50 35 54 35 5 0 9 -54
9 -120z m-16 -303 c34 -81 134 -105 200 -47 18 17 37 41 40 55 6 24 10 25 76
25 40 0 70 -4 70 -10 0 -5 -14 -10 -30 -10 -21 0 -32 -6 -36 -17 -3 -10 -11
-30 -19 -45 -12 -24 -11 -28 6 -44 24 -22 24 -36 -1 -59 -20 -18 -21 -18 -43
4 l-24 21 -46 -20 c-41 -18 -47 -25 -47 -50 0 -27 -3 -30 -30 -30 -27 0 -30 3
-30 30 0 27 -6 33 -47 51 l-46 20 -24 -23 -23 -22 -22 22 -22 22 22 23 22 24
-20 46 c-18 41 -25 47 -50 47 -17 0 -30 5 -30 10 0 6 30 10 70 10 70 0 70 0
84 -33z m216 24 c0 -20 -51 -69 -77 -74 -50 -9 -113 31 -113 72 0 7 34 11 95
11 52 0 95 -4 95 -9z"/>
</g>
</svg>
