<svg xmlns="http://www.w3.org/2000/svg" width="171.751" height="54.035" viewBox="0 0 171.751 54.035">
  <g id="Logo" transform="translate(-389.987 -3862.951)">
    <text id="LEARNED" transform="translate(437.247 3898.951)" fill="#fff" font-size="28" font-family="Cairo-Black, Cairo" font-weight="800"><tspan x="0" y="0">LEARNED</tspan></text>
    <text id="Education_for_everyone" data-name="Education for everyone" transform="translate(437.738 3911.272)" fill="#fff" font-size="11" font-family="Roboto-Regular, Roboto" letter-spacing="0.05em"><tspan x="0" y="0">Education for everyone</tspan></text>
    <path id="Forma_1" data-name="Forma 1" d="M412.931,3916.9a3.131,3.131,0,0,1-1.72-1.024c-.716-.737-4.3-4.386-7.724-7.406a9.222,9.222,0,0,0-1.7,2.906,24.049,24.049,0,0,0-.691,3.993l-.784-1.71-1.137.359a11.371,11.371,0,0,1,.823-3.473,26.708,26.708,0,0,1,1.573-2.579,10.882,10.882,0,0,0-2.664,1.924,13.789,13.789,0,0,0-1.854,3.235l-.643-1.26-1.862-.44s2.88-2.617,3.572-3.108a32.731,32.731,0,0,0,2.778-2.016c-2.7-2.161-5.189-3.854-5.4-3.977a3.706,3.706,0,0,1-2.052-2.617c-.186-1.281.464-2.7,1.934-4.228l.376-.392.378.389q.476.491.932.954a6.907,6.907,0,0,1,4.731-1.879l.293.011.143.254c2.6,4.61,12.259,11.2,13.388,11.952a3.71,3.71,0,0,1,1.413.987c1.837,1.9,1.538,4.8.481,6.688a4.474,4.474,0,0,1-3.8,2.544A3.74,3.74,0,0,1,412.931,3916.9Zm-7.912-13.1c4.071,3.329,5.717,3.791,5.739,3.8l.486.114-.086.49c-.341,1.935-.643,7.086,2,7.67a3.308,3.308,0,0,0,3.441-1.948c.871-1.558,1.143-3.929-.32-5.45-.732-.763-1.4-.98-1.985-.648a2.627,2.627,0,0,0-.952,1.106c.381.373,1.183,1.117,2.663,2.377l.234.2-.061.3c-.39,1.95-1.456,2.2-1.894,2.213-1.025.022-2-.918-2.4-2.377a4.876,4.876,0,0,1,1.891-4.731c.035-.021.073-.041.115-.061-1.368-.956-3.656-2.608-5.954-4.517A5.115,5.115,0,0,0,405.019,3903.8Zm-1.327,3.448c2.306,2,4.739,4.356,6.395,6a16.253,16.253,0,0,1-.029-4.789,25.234,25.234,0,0,1-5.6-3.757A8.334,8.334,0,0,0,403.692,3907.252Zm9.2,4.12c.29,1.051.9,1.606,1.335,1.606h.017c.349-.011.655-.409.838-1.073-1.02-.876-1.7-1.486-2.131-1.892A2.954,2.954,0,0,0,412.895,3911.373Zm-18.412-11.819a2.688,2.688,0,0,0,1.533,1.857c.329.187,2.591,1.742,5.071,3.7a4.832,4.832,0,0,1,.942-2.476c-1.761-1.567-3.835-3.54-6.261-6.025A3.927,3.927,0,0,0,394.483,3899.553Zm3.324-2.379c1.823,1.827,3.423,3.336,4.821,4.58a4.1,4.1,0,0,1,2.832-1.588,23.608,23.608,0,0,1-3.986-4.571A6.055,6.055,0,0,0,397.806,3897.175Zm28.183,7.278-2.321.723,1.041-3.338,1.434.45c.3-.959,1.264-4.055,2.1-6.745l-5.037.974.628-2.015s-5.644-5.695-12.363-7.8-14.422-.463-14.422-.463l-.36,1.155-6.706-6,24.383-5.389,13.019,13.664a.733.733,0,0,1,.439-.208c4.375-.592,2.637,2.607,2.637,2.607l-.193.628,1.971,2.071-2.783.535-2.277,7.3,1.55.487-1.039,3.337Zm1.351-11.055a1.057,1.057,0,1,0,1.01-.744A1.057,1.057,0,0,0,427.34,3893.4Zm1.034-2.69,1.038,1.092c.1-.326.173-.551.2-.628.145-.465-.112-.6-.462-.6A2.944,2.944,0,0,0,428.374,3890.708ZM409,3895.022a72.33,72.33,0,0,0-12.41-2.42l1.656-5.314s6.908-1.467,12.933.416,11.088,6.99,11.088,6.99l-1.685,5.409A72.131,72.131,0,0,0,409,3895.022Z" fill="#fff"/>
  </g>
</svg>
